<?xml version="1.0" encoding="iso-8859-1"?>
<!-- Generator: Adobe Illustrator 18.1.1, SVG Export Plug-In . SVG Version: 6.00 Build 0)  -->
<svg version="1.1" id="Capa_1" xmlns="http://www.w3.org/2000/svg" xmlns:xlink="http://www.w3.org/1999/xlink" x="0px" y="0px"
	 viewBox="0 0 253.974 253.974" style="enable-background:new 0 0 253.974 253.974;" xml:space="preserve">
<g>
	<path style="fill:#010002;" d="M241.341,8.945c-4.95-0.125-10.764,1.006-15.414,5.575l-49.811,42.169
		c-4.585,3.883-12.847,5.281-18.46,3.127l-11.906-4.58c-5.608-2.154-7.408-7.919-4.025-12.885l8.447-12.374
		c1.632-2.284,0.974-4.041-0.364-5.325c-2.371-2.268-8.79-4.096-12.689-2.426c-3.59,1.528-6.228,4.406-6.228,4.406l-8.67,9.399
		c-4.068,4.417-12.156,7.103-18.063,5.994l-20.32-3.796c-5.907-1.104-8.082-5.515-4.873-9.845l5.82-7.838
		c1.969-2.665,2.48-4.89,2.268-6.685c-0.473-3.965-7.925-6.619-12.461-5.477c-4.536,1.142-11.041,6.821-15.001,11.34l-1.811,2.072
		c-3.954,4.52-12.031,8.012-18.036,7.794l-17.079-0.625c-6.01-0.218-13.451-2.562-17.068-2.257
		c-1.828,0.152-3.671,1.131-4.911,3.845c0,0-1.24,3.1-0.381,6.097c0.936,3.296,8.289,6.788,13.565,9.665
		c23.23,12.668,73.221,39.101,94.243,50.197c5.314,2.807,5.983,8.311,1.49,12.303l-59.96,53.259c-4.487,3.987-12.863,6.07-18.7,4.65
		l-6.211-1.512c-5.836-1.42-12.907-2.823-15.333-1.621c-2.426,1.213-7.919,5.689-9.159,10.829
		c-1.235,5.14,7.294,11.427,12.847,13.706c6.652,2.73,14.767,5.58,19.662,10.873c6.32,6.815,10.329,15.257,12.722,21.789
		c2.067,5.64,5.564,14.163,9.872,13.483c3.709-0.571,6.739-3.84,6.739-3.84s1.539-1.686,3.437-3.764
		c1.898-2.083,2.29-8.501,0.876-14.343l-0.952-3.911c-1.414-5.836,1.197-13.674,5.825-17.497l68.462-56.566
		c4.634-3.829,10.323-2.464,12.722,3.04l43.11,99.203c2.393,5.51,11.003,12.907,12.885,7.201c1.055-3.209,1.349-8.719-0.011-17.971
		c0,0-0.457-4.357-1.023-9.725c-0.566-5.363,2.774-12.771,7.452-16.535l13.946-11.215c0,0,4.101-3.084,5.64-8.365
		c1.577-5.428-2.736-12.76-6.249-12.232c-3.519,0.533-9.888,4.074-14.696,6.304c-4.808,2.23-9.029-0.821-9.431-6.815l-0.729-10.9
		c-0.402-5.994,3.389-13.462,8.463-16.671l3.617-2.284c5.075-3.214,12.608-9.562,14.468-15.273c0.005-0.016,0.011-0.038,0.016-0.054
		c1.844-5.716-3.883-12.853-8.115-13.168c-4.232-0.321-12.129,2.567-17.862,4.068c-5.738,1.501-10.867-2.121-11.466-8.099
		l-0.555-5.499c-0.598-5.983,2.502-14.12,6.924-18.188l43.23-39.711c4.422-4.068,10.829-11.574,11.683-17.519
		c0.109-0.751,0.18-1.523,0.218-2.322C254.253,15.635,247.346,9.097,241.341,8.945z"/>
</g>
<g>
</g>
<g>
</g>
<g>
</g>
<g>
</g>
<g>
</g>
<g>
</g>
<g>
</g>
<g>
</g>
<g>
</g>
<g>
</g>
<g>
</g>
<g>
</g>
<g>
</g>
<g>
</g>
<g>
</g>
</svg>
