<?xml version="1.0" encoding="UTF-8"?>
<svg width="24px" height="24px" viewBox="0 0 24 24" version="1.1" xmlns="http://www.w3.org/2000/svg" xmlns:xlink="http://www.w3.org/1999/xlink">
    <!-- Generator: Sketch 46.2 (44496) - http://www.bohemiancoding.com/sketch -->
    <title>magnifying-glass (1)</title>
    <desc>Created with Sketch.</desc>
    <defs></defs>
    <g id="Symbols" stroke="none" stroke-width="1" fill="none" fill-rule="evenodd">
        <g id="Experience-Copy" transform="translate(-339.000000, -12.000000)" fill-rule="nonzero" fill="#7E7E7E">
            <g id="magnifying-glass-(1)" transform="translate(339.000000, 12.000000)">
                <path d="M23.7898004,22.7760532 L17.9574279,16.9436807 C19.5219512,15.1450111 20.4691796,12.7982262 20.4691796,10.2332594 C20.4691796,4.58713969 15.8767184,0 10.2359202,0 C4.58980044,0 0.00266075388,4.5924612 0.00266075388,10.2332594 C0.00266075388,15.8740576 4.59512195,20.4665188 10.2359202,20.4665188 C12.8008869,20.4665188 15.1476718,19.5192905 16.9463415,17.9547672 L22.778714,23.7871397 C22.9170732,23.9254989 23.1033259,24 23.2842572,24 C23.4651885,24 23.6514412,23.9308204 23.7898004,23.7871397 C24.0665188,23.5104213 24.0665188,23.0527716 23.7898004,22.7760532 Z M1.43414634,10.2332594 C1.43414634,5.38004435 5.3827051,1.4368071 10.2305987,1.4368071 C15.0838137,1.4368071 19.027051,5.38536585 19.027051,10.2332594 C19.027051,15.081153 15.0838137,19.0350333 10.2305987,19.0350333 C5.3827051,19.0350333 1.43414634,15.0864745 1.43414634,10.2332594 Z" id="Shape"></path>
            </g>
        </g>
    </g>
</svg>