<?xml version="1.0" encoding="iso-8859-1"?>
<!-- Generator: Adobe Illustrator 17.1.0, SVG Export Plug-In . SVG Version: 6.00 Build 0)  -->
<!DOCTYPE svg PUBLIC "-//W3C//DTD SVG 1.1//EN" "http://www.w3.org/Graphics/SVG/1.1/DTD/svg11.dtd">
<svg xmlns="http://www.w3.org/2000/svg" xmlns:xlink="http://www.w3.org/1999/xlink" version="1.1" id="Capa_1" x="0px" y="0px" viewBox="0 0 198.76 198.76" style="enable-background:new 0 0 198.76 198.76;" xml:space="preserve" width="512px" height="512px">
<path d="M186.641,159.252c-1.381,0-2.5-1.119-2.5-2.5v-12.387H14.619v12.387c0,1.381-1.119,2.5-2.5,2.5s-2.5-1.119-2.5-2.5v-12.387  H2.5c-1.381,0-2.5-1.119-2.5-2.5V54.841c0-8.455,6.878-15.333,15.333-15.333h168.094c8.455,0,15.333,6.878,15.333,15.333v87.024  c0,1.381-1.119,2.5-2.5,2.5h-7.119v12.387C189.141,158.133,188.022,159.252,186.641,159.252z M186.641,139.365h7.119v-34.081H5  v34.081H186.641z M5,100.284h188.76V90.027c0-4.136-3.364-7.5-7.5-7.5H12.5c-4.136,0-7.5,3.364-7.5,7.5V100.284z M15.333,44.508  C9.635,44.508,5,49.144,5,54.841v25.191c2.09-1.572,4.688-2.506,7.5-2.506h6.738v-2.624c0-6.271,5.101-11.371,11.371-11.371H78.37  c6.27,0,11.371,5.101,11.371,11.371v2.624h19.277v-2.624c0-6.271,5.101-11.371,11.371-11.371h47.761  c6.27,0,11.371,5.101,11.371,11.371v2.624h6.739c2.812,0,5.41,0.934,7.5,2.506V54.841c0-5.697-4.636-10.333-10.333-10.333H15.333z   M114.019,77.208h60.503v-2.306c0-3.513-2.858-6.371-6.371-6.371H120.39c-3.513,0-6.371,2.858-6.371,6.371V77.208z M24.238,77.208  h60.503v-2.306c0-3.513-2.858-6.371-6.371-6.371H30.609c-3.513,0-6.371,2.858-6.371,6.371V77.208z" fill="#bcbfc2"/>
<g>
</g>
<g>
</g>
<g>
</g>
<g>
</g>
<g>
</g>
<g>
</g>
<g>
</g>
<g>
</g>
<g>
</g>
<g>
</g>
<g>
</g>
<g>
</g>
<g>
</g>
<g>
</g>
<g>
</g>
</svg>
