<?xml version="1.0" encoding="UTF-8"?>
<svg width="71px" height="70px" viewBox="0 0 71 70" version="1.1" xmlns="http://www.w3.org/2000/svg" xmlns:xlink="http://www.w3.org/1999/xlink">
    <!-- Generator: Sketch 46.2 (44496) - http://www.bohemiancoding.com/sketch -->
    <title>cloud-sun-rain</title>
    <desc>Created with Sketch.</desc>
    <defs></defs>
    <g id="Symbols" stroke="none" stroke-width="1" fill="none" fill-rule="evenodd">
        <g id="Tours" transform="translate(-234.000000, -5573.000000)">
            <g id="cloud-sun-rain" transform="translate(234.769231, 5573.000000)">
                <g id="Weather">
                    <g>
                        <g id="Icon-12">
                            <g id="cloud-sun-rain">
                                <path d="M28.8003333,25.3411667 C26.131,22.5411667 22.5318333,21 18.6666667,21 C10.9468333,21 4.66666667,27.2801667 4.66666667,35 C4.66666667,35.8598333 4.74483333,36.7196667 4.89883333,37.555 C5.00266667,38.1161667 5.49383333,38.5093333 6.04566667,38.5093333 C6.11566667,38.5093333 6.18683333,38.5023333 6.258,38.4895 C6.8915,38.3728333 7.31033333,37.7638333 7.19366667,37.1303333 C7.06533333,36.435 7,35.7175 7,35 C7,28.567 12.2336667,23.3333333 18.6666667,23.3333333 C21.8878333,23.3333333 24.8873333,24.619 27.1121667,26.9511667 C27.5566667,27.4178333 28.2963333,27.4353333 28.7618333,26.9908333 C29.2285,26.5463333 29.246,25.8078333 28.8003333,25.3411667" id="Fill-1" fill="#12B1BF"></path>
                                <path d="M58.3333333,30.3333333 C58.3333333,31.8138333 58.1361667,33.2791667 57.7465,34.6896667 C57.575,35.3103333 57.9401667,35.9531667 58.5608333,36.1246667 C58.6646667,36.1538333 58.7696667,36.1666667 58.8711667,36.1666667 C59.3833333,36.1666667 59.8535,35.8271667 59.9958333,35.3103333 C60.4415,33.698 60.6666667,32.0226667 60.6666667,30.3333333 C60.6666667,20.041 52.2923333,11.6666667 42,11.6666667 C35.7688333,11.6666667 29.9705,14.7595 26.4915,19.9406667 C26.1321667,20.4761667 26.2745,21.2006667 26.81,21.56 C27.3443333,21.9205 28.0688333,21.7758333 28.4281667,21.2415 C31.4731667,16.7066667 36.5481667,14 42,14 C51.0066667,14 58.3333333,21.3266667 58.3333333,30.3333333" id="Fill-2" fill="#12B1BF"></path>
                                <path d="M64.0698333,32.8918333 C63.5425,32.5208333 62.8145,32.6456667 62.4435,33.1718333 C62.0725,33.698 62.1961667,34.426 62.7235,34.7981667 C65.8186667,36.9856667 67.6666667,40.5498333 67.6666667,44.3333333 C67.6666667,50.7663333 62.433,56 56,56 L47.8333333,56 C45.815,56 42,57.2191667 42,61.8333333 C42,62.4773333 42.5226667,63 43.1666667,63 C43.8106667,63 44.3333333,62.4773333 44.3333333,61.8333333 C44.3333333,58.5398333 47.2535,58.3403333 47.8333333,58.3333333 L56,58.3333333 C63.7198333,58.3333333 70,52.0531667 70,44.3333333 C70,39.7926667 67.7833333,35.5156667 64.0698333,32.8918333" id="Fill-3" fill="#12B1BF"></path>
                                <path d="M17.5,56 L9.33333333,56 C5.47283333,56 2.33333333,52.8605 2.33333333,49 C2.33333333,45.1395 5.47283333,42 9.33333333,42 C9.97733333,42 10.5,41.4773333 10.5,40.8333333 C10.5,40.1893333 9.97733333,39.6666667 9.33333333,39.6666667 C4.18716667,39.6666667 0,43.8538333 0,49 C0,54.1461667 4.18716667,58.3333333 9.33333333,58.3333333 L17.4941667,58.3333333 C18.0798333,58.3403333 21,58.5398333 21,61.8333333 L21,64.1666667 C21,64.8106667 21.5226667,65.3333333 22.1666667,65.3333333 C22.8106667,65.3333333 23.3333333,64.8106667 23.3333333,64.1666667 L23.3333333,61.8333333 C23.3333333,57.2191667 19.5171667,56 17.5,56" id="Fill-4" fill="#12B1BF"></path>
                                <path d="M29.1666667,65.3333333 C28.5226667,65.3333333 28,65.856 28,66.5 L28,68.8333333 C28,69.4773333 28.5226667,70 29.1666667,70 C29.8106667,70 30.3333333,69.4773333 30.3333333,68.8333333 L30.3333333,66.5 C30.3333333,65.856 29.8106667,65.3333333 29.1666667,65.3333333" id="Fill-5" fill="#F5B303"></path>
                                <path d="M43.1666667,65.3333333 C42.5226667,65.3333333 42,65.856 42,66.5 L42,68.8333333 C42,69.4773333 42.5226667,70 43.1666667,70 C43.8106667,70 44.3333333,69.4773333 44.3333333,68.8333333 L44.3333333,66.5 C44.3333333,65.856 43.8106667,65.3333333 43.1666667,65.3333333" id="Fill-6" fill="#F5B303"></path>
                                <path d="M29.1666667,58.3333333 C28.5226667,58.3333333 28,58.856 28,59.5 L28,61.8333333 C28,62.4773333 28.5226667,63 29.1666667,63 C29.8106667,63 30.3333333,62.4773333 30.3333333,61.8333333 L30.3333333,59.5 C30.3333333,58.856 29.8106667,58.3333333 29.1666667,58.3333333" id="Fill-7" fill="#F5B303"></path>
                                <path d="M29.1666667,51.3333333 C28.5226667,51.3333333 28,51.856 28,52.5 L28,54.8333333 C28,55.4773333 28.5226667,56 29.1666667,56 C29.8106667,56 30.3333333,55.4773333 30.3333333,54.8333333 L30.3333333,52.5 C30.3333333,51.856 29.8106667,51.3333333 29.1666667,51.3333333" id="Fill-8" fill="#F5B303"></path>
                                <path d="M36.1666667,63 C35.5226667,63 35,63.5226667 35,64.1666667 L35,66.5 C35,67.144 35.5226667,67.6666667 36.1666667,67.6666667 C36.8106667,67.6666667 37.3333333,67.144 37.3333333,66.5 L37.3333333,64.1666667 C37.3333333,63.5226667 36.8106667,63 36.1666667,63" id="Fill-9" fill="#F5B303"></path>
                                <path d="M36.1666667,56 C35.5226667,56 35,56.5226667 35,57.1666667 L35,59.5 C35,60.144 35.5226667,60.6666667 36.1666667,60.6666667 C36.8106667,60.6666667 37.3333333,60.144 37.3333333,59.5 L37.3333333,57.1666667 C37.3333333,56.5226667 36.8106667,56 36.1666667,56" id="Fill-10" fill="#F5B303"></path>
                                <path d="M10.5023333,20.958 C10.5816667,20.9743333 10.661,20.9825 10.738,20.9825 C11.2805,20.9825 11.767,20.6021667 11.8801667,20.0491667 C12.8741667,15.1923333 17.2001667,11.6666667 22.1666667,11.6666667 C24.4626667,11.6678333 26.6431667,12.3946667 28.4736667,13.7725 C28.9893333,14.1586667 29.7196667,14.0548333 30.107,13.5403333 C30.4943333,13.0258333 30.3905,12.2943333 29.876,11.907 C27.6383333,10.2246667 24.9725,9.3345 22.1666667,9.3345 C16.0965,9.3345 10.8091667,13.6441667 9.59466667,19.5813333 C9.46516667,20.2125 9.87116667,20.8296667 10.5023333,20.958" id="Fill-11" fill="#12B1BF"></path>
                                <path d="M33.7155,11.7845 C34.0141667,11.7845 34.3128333,11.6701667 34.5403333,11.4426667 L37.8408333,8.14333333 C38.297,7.68716667 38.297,6.94866667 37.8408333,6.4925 C37.3858333,6.0375 36.6473333,6.0375 36.1911667,6.4925 L32.8906667,9.793 C32.4356667,10.248 32.4356667,10.9865 32.8906667,11.4426667 C33.1193333,11.6701667 33.418,11.7845 33.7155,11.7845" id="Fill-12" fill="#F5B303"></path>
                                <path d="M22.1666667,7 C22.8106667,7 23.3333333,6.4785 23.3333333,5.83333333 L23.3333333,1.16666667 C23.3333333,0.522666667 22.8106667,0 22.1666667,0 C21.5226667,0 21,0.522666667 21,1.16666667 L21,5.83333333 C21,6.4785 21.5226667,7 22.1666667,7" id="Fill-13" fill="#F5B303"></path>
                                <path d="M9.793,11.4426667 C10.0205,11.6701667 10.3191667,11.7845 10.6178333,11.7845 C10.9153333,11.7845 11.214,11.6701667 11.4426667,11.4426667 C11.8976667,10.9865 11.8976667,10.248 11.4426667,9.793 L8.14216667,6.4925 C7.686,6.0375 6.9475,6.0375 6.49133333,6.4925 C6.03633333,6.94866667 6.03633333,7.68716667 6.49133333,8.14333333 L9.793,11.4426667" id="Fill-14" fill="#F5B303"></path>
                                <path d="M1.16666667,23.3345 L5.83333333,23.3333333 C6.47733333,23.3333333 7,22.8118333 7,22.1666667 C7,21.5226667 6.47733333,21 5.83333333,21 L1.16666667,21.0011667 C0.522666667,21.0011667 0,21.5238333 0,22.1678333 C0,22.8118333 0.522666667,23.3345 1.16666667,23.3345" id="Fill-15" fill="#F5B303"></path>
                                <path d="M14.8388333,7.52383333 C15.0243333,7.973 15.4583333,8.24366667 15.9168333,8.24366667 C16.065,8.24366667 16.2166667,8.21566667 16.3625,8.155 C16.9586667,7.90766667 17.241,7.22516667 16.9936667,6.63016667 L16.1011667,4.47416667 C15.8538333,3.87916667 15.1701667,3.5945 14.5763333,3.843 C13.9813333,4.08916667 13.699,4.77166667 13.9451667,5.36783333 L14.8388333,7.52383333" id="Fill-16" fill="#F5B303"></path>
                                <path d="M27.9708333,8.15383333 C28.1166667,8.2145 28.2671667,8.24366667 28.4165,8.24366667 C28.8738333,8.24366667 29.309,7.97183333 29.4945,7.52266667 L30.3881667,5.36783333 C30.6343333,4.77166667 30.352,4.08916667 29.757,3.843 C29.162,3.5945 28.4795,3.87916667 28.2321667,4.47416667 L27.3396667,6.63016667 C27.0923333,7.22516667 27.3746667,7.90766667 27.9708333,8.15383333" id="Fill-17" fill="#F5B303"></path>
                                <path d="M4.47533333,16.1011667 L6.63133333,16.9936667 C6.77716667,17.0543333 6.92766667,17.0835 7.077,17.0835 C7.53433333,17.0835 7.9695,16.8116667 8.155,16.3625 C8.40233333,15.7675 8.12,15.085 7.52383333,14.8376667 L5.369,13.9451667 C4.7705,13.6978333 4.09033333,13.9813333 3.84416667,14.5763333 C3.59683333,15.1713333 3.88033333,15.8538333 4.47533333,16.1011667" id="Fill-18" fill="#F5B303"></path>
                                <path d="M52.1231667,22.3568333 C51.583,22.708 51.4301667,23.4313333 51.7825,23.9715 C53.0145,25.8638333 53.6666667,28.0641667 53.6666667,30.3333333 C53.6666667,30.9773333 54.1893333,31.5 54.8333333,31.5 C55.4773333,31.5 56,30.9773333 56,30.3333333 C56,27.6103333 55.2183333,24.9701667 53.7366667,22.6975 C53.3843333,22.1573333 52.6633333,22.0045 52.1231667,22.3568333" id="Fill-19" fill="#F5B303"></path>
                                <path d="M10.8383333,33.8333333 C11.3411667,33.8333333 11.8055,33.5055 11.9571667,32.9991667 C12.4051667,31.4918333 13.3676667,30.1618333 14.665,29.2576667 C15.1935,28.889 15.323,28.1621667 14.9543333,27.6325 C14.5868333,27.1063333 13.86,26.9756667 13.3303333,27.3443333 C11.6013333,28.5495 10.3203333,30.3216667 9.7195,32.333 C9.53633333,32.9501667 9.8875,33.6 10.5046667,33.7843333 C10.6166667,33.817 10.7286667,33.8333333 10.8383333,33.8333333" id="Fill-20" fill="#F5B303"></path>
                            </g>
                        </g>
                    </g>
                </g>
            </g>
        </g>
    </g>
</svg>