<?xml version="1.0" encoding="UTF-8"?>
<svg width="71px" height="70px" viewBox="0 0 71 70" version="1.1" xmlns="http://www.w3.org/2000/svg" xmlns:xlink="http://www.w3.org/1999/xlink">
    <!-- Generator: Sketch 46.2 (44496) - http://www.bohemiancoding.com/sketch -->
    <title>temperature-cold</title>
    <desc>Created with Sketch.</desc>
    <defs></defs>
    <g id="Symbols" stroke="none" stroke-width="1" fill="none" fill-rule="evenodd">
        <g id="Tours" transform="translate(-254.000000, -5342.000000)">
            <g id="temperature-cold" transform="translate(220.000000, 5342.000000)">
                <g id="Weather">
                    <g>
                        <g id="Icon-20">
                            <g id="temperature-cold">
                                <path d="M55.4615385,43.8865 L55.4615385,11.6666667 C55.4615385,7.80616667 52.3220385,4.66666667 48.4615385,4.66666667 C44.6010385,4.66666667 41.4615385,7.80616667 41.4615385,11.6666667 L41.4615385,33.8333333 C41.4615385,34.4773333 41.9830385,35 42.6282051,35 C43.2733718,35 43.7948718,34.4773333 43.7948718,33.8333333 L43.7948718,32.6666667 L44.9615385,32.6666667 C45.6067051,32.6666667 46.1282051,32.144 46.1282051,31.5 C46.1282051,30.856 45.6067051,30.3333333 44.9615385,30.3333333 L43.7948718,30.3333333 L43.7948718,25.6666667 L44.9615385,25.6666667 C45.6067051,25.6666667 46.1282051,25.144 46.1282051,24.5 C46.1282051,23.856 45.6067051,23.3333333 44.9615385,23.3333333 L43.7948718,23.3333333 L43.7948718,18.6666667 L44.9615385,18.6666667 C45.6067051,18.6666667 46.1282051,18.144 46.1282051,17.5 C46.1282051,16.856 45.6067051,16.3333333 44.9615385,16.3333333 L43.7948718,16.3333333 L43.7948718,11.6666667 C43.7948718,9.093 45.8878718,7 48.4615385,7 C51.0352051,7 53.1282051,9.093 53.1282051,11.6666667 L53.1282051,44.5783333 C53.1282051,45.017 53.3732051,45.4183333 53.7628718,45.6178333 C57.6887051,47.6268333 60.1282051,51.6051667 60.1282051,56 C60.1282051,62.433 54.8945385,67.6666667 48.4615385,67.6666667 C42.0285385,67.6666667 36.7948718,62.433 36.7948718,56 C36.7948718,51.6051667 39.2343718,47.6268333 43.1602051,45.6178333 C43.5498718,45.4183333 43.7948718,45.017 43.7948718,44.5783333 L43.7948718,39.6666667 L49.6282051,39.6666667 C50.2733718,39.6666667 50.7948718,39.144 50.7948718,38.5 C50.7948718,37.856 50.2733718,37.3333333 49.6282051,37.3333333 L42.6282051,37.3333333 C41.9830385,37.3333333 41.4615385,37.856 41.4615385,38.5 L41.4615385,43.8865 C37.1250385,46.389 34.4615385,50.967 34.4615385,56 C34.4615385,63.7198333 40.7417051,70 48.4615385,70 C56.1813718,70 62.4615385,63.7198333 62.4615385,56 C62.4615385,50.967 59.7980385,46.389 55.4615385,43.8865 L0.327039393,34.2535859" id="Fill-1" fill="#12B1BF"></path>
                                <path d="M47.2948718,61.8333333 C47.2948718,62.4773333 47.8163718,63 48.4615385,63 C52.3220385,63 55.4615385,59.8605 55.4615385,56 C55.4615385,55.356 54.9400385,54.8333333 54.2948718,54.8333333 C53.6497051,54.8333333 53.1282051,55.356 53.1282051,56 C53.1282051,58.5736667 51.0352051,60.6666667 48.4615385,60.6666667 C47.8163718,60.6666667 47.2948718,61.1893333 47.2948718,61.8333333" id="Fill-2" fill="#F5B303"></path>
                                <path d="M103.294872,21 L99.1112051,21 L100.619705,19.4915 C101.075872,19.0353333 101.075872,18.298 100.619705,17.8418333 C100.163538,17.3856667 99.4262051,17.3856667 98.9700385,17.8418333 L95.8118718,21 L92.1112051,21 L95.9530385,17.1581667 C96.4092051,16.702 96.4092051,15.9646667 95.9530385,15.5085 C95.4968718,15.0523333 94.7595385,15.0523333 94.3033718,15.5085 L88.8118718,21 L87.4445385,21 L86.2778718,19.8333333 L94.4445385,11.6666667 L96.2948718,11.6666667 C96.9400385,11.6666667 97.4615385,11.144 97.4615385,10.5 C97.4615385,9.856 96.9400385,9.33333333 96.2948718,9.33333333 L95.1282051,9.33333333 L95.1282051,8.16666667 C95.1282051,7.52266667 94.6067051,7 93.9615385,7 C93.3163718,7 92.7948718,7.52266667 92.7948718,8.16666667 L92.7948718,10.017 L84.6282051,18.1836667 L83.4615385,17.017 L83.4615385,15.6496667 L88.9530385,10.1581667 C89.4092051,9.702 89.4092051,8.96466667 88.9530385,8.5085 C88.4968718,8.05233333 87.7595385,8.05233333 87.3033718,8.5085 L83.4615385,12.3503333 L83.4615385,8.64966667 L86.6197051,5.4915 C87.0758718,5.03533333 87.0758718,4.298 86.6197051,3.84183333 C86.1635385,3.38566667 85.4262051,3.38566667 84.9700385,3.84183333 L83.4615385,5.35033333 L83.4615385,1.16666667 C83.4615385,0.522666667 82.9400385,0 82.2948718,0 C81.6497051,0 81.1282051,0.522666667 81.1282051,1.16666667 L81.1282051,5.35033333 L79.6197051,3.84183333 C79.1635385,3.38566667 78.4262051,3.38566667 77.9700385,3.84183333 C77.5138718,4.298 77.5138718,5.03533333 77.9700385,5.4915 L81.1282051,8.64966667 L81.1282051,12.3503333 L77.2863718,8.5085 C76.8302051,8.05233333 76.0928718,8.05233333 75.6367051,8.5085 C75.1805385,8.96466667 75.1805385,9.702 75.6367051,10.1581667 L81.1282051,15.6496667 L81.1282051,17.017 L79.9615385,18.1836667 L71.7948718,10.017 L71.7948718,8.16666667 C71.7948718,7.52266667 71.2733718,7 70.6282051,7 C69.9830385,7 69.4615385,7.52266667 69.4615385,8.16666667 L69.4615385,9.33333333 L68.2948718,9.33333333 C67.6497051,9.33333333 67.1282051,9.856 67.1282051,10.5 C67.1282051,11.144 67.6497051,11.6666667 68.2948718,11.6666667 L70.1452051,11.6666667 L78.3118718,19.8333333 L77.1452051,21 L75.7778718,21 L70.2863718,15.5085 C69.8302051,15.0523333 69.0928718,15.0523333 68.6367051,15.5085 C68.1805385,15.9646667 68.1805385,16.702 68.6367051,17.1581667 L72.4785385,21 L68.7778718,21 L65.6197051,17.8418333 C65.1635385,17.3856667 64.4262051,17.3856667 63.9700385,17.8418333 C63.5138718,18.298 63.5138718,19.0353333 63.9700385,19.4915 L65.4785385,21 L61.2948718,21 C60.6497051,21 60.1282051,21.5226667 60.1282051,22.1666667 C60.1282051,22.8106667 60.6497051,23.3333333 61.2948718,23.3333333 L65.4785385,23.3333333 L63.9700385,24.8418333 C63.5138718,25.298 63.5138718,26.0353333 63.9700385,26.4915 C64.1975385,26.719 64.4962051,26.8333333 64.7948718,26.8333333 C65.0935385,26.8333333 65.3922051,26.719 65.6197051,26.4915 L68.7778718,23.3333333 L72.4785385,23.3333333 L68.6367051,27.1751667 C68.1805385,27.6313333 68.1805385,28.3686667 68.6367051,28.8248333 C68.8642051,29.0523333 69.1628718,29.1666667 69.4615385,29.1666667 C69.7602051,29.1666667 70.0588718,29.0523333 70.2863718,28.8248333 L75.7778718,23.3333333 L77.1452051,23.3333333 L78.3118718,24.5 L70.1452051,32.6666667 L68.2948718,32.6666667 C67.6497051,32.6666667 67.1282051,33.1893333 67.1282051,33.8333333 C67.1282051,34.4773333 67.6497051,35 68.2948718,35 L69.4615385,35 L69.4615385,36.1666667 C69.4615385,36.8106667 69.9830385,37.3333333 70.6282051,37.3333333 C71.2733718,37.3333333 71.7948718,36.8106667 71.7948718,36.1666667 L71.7948718,34.3163333 L79.9615385,26.1496667 L81.1282051,27.3163333 L81.1282051,28.6836667 L75.6367051,34.1751667 C75.1805385,34.6313333 75.1805385,35.3686667 75.6367051,35.8248333 C76.0928718,36.281 76.8302051,36.281 77.2863718,35.8248333 L81.1282051,31.983 L81.1282051,35.6836667 L77.9700385,38.8418333 C77.5138718,39.298 77.5138718,40.0353333 77.9700385,40.4915 C78.4262051,40.9476667 79.1635385,40.9476667 79.6197051,40.4915 L81.1282051,38.983 L81.1282051,43.1666667 C81.1282051,43.8118333 81.6497051,44.3345 82.2948718,44.3345 C82.9400385,44.3345 83.4615385,43.8118333 83.4615385,43.1666667 L83.4615385,38.983 L84.9700385,40.4915 C85.1975385,40.719 85.4962051,40.8333333 85.7948718,40.8333333 C86.0935385,40.8333333 86.3922051,40.719 86.6197051,40.4915 C87.0758718,40.0353333 87.0758718,39.298 86.6197051,38.8418333 L83.4615385,35.6836667 L83.4615385,31.983 L87.3033718,35.8248333 C87.5308718,36.0523333 87.8295385,36.1666667 88.1282051,36.1666667 C88.4268718,36.1666667 88.7255385,36.0523333 88.9530385,35.8248333 C89.4092051,35.3686667 89.4092051,34.6313333 88.9530385,34.1751667 L83.4615385,28.6836667 L83.4615385,27.3163333 L84.6282051,26.1496667 L92.7948718,34.3163333 L92.7948718,36.1666667 C92.7948718,36.8106667 93.3163718,37.3333333 93.9615385,37.3333333 C94.6067051,37.3333333 95.1282051,36.8106667 95.1282051,36.1666667 L95.1282051,35 L96.2948718,35 C96.9400385,35 97.4615385,34.4773333 97.4615385,33.8333333 C97.4615385,33.1893333 96.9400385,32.6666667 96.2948718,32.6666667 L94.4445385,32.6666667 L86.2778718,24.5 L87.4445385,23.3333333 L88.8118718,23.3333333 L94.3033718,28.8248333 C94.5308718,29.0523333 94.8295385,29.1666667 95.1282051,29.1666667 C95.4268718,29.1666667 95.7255385,29.0523333 95.9530385,28.8248333 C96.4092051,28.3686667 96.4092051,27.6313333 95.9530385,27.1751667 L92.1112051,23.3333333 L95.8118718,23.3333333 L98.9700385,26.4915 C99.1975385,26.719 99.4962051,26.8333333 99.7948718,26.8333333 C100.093538,26.8333333 100.392205,26.719 100.619705,26.4915 C101.075872,26.0353333 101.075872,25.298 100.619705,24.8418333 L99.1112051,23.3333333 L103.294872,23.3333333 C103.940038,23.3333333 104.461538,22.8106667 104.461538,22.1666667 C104.461538,21.5226667 103.940038,21 103.294872,21 L103.294872,21 L103.294872,21 Z M82.2948718,25.1836667 L79.2778718,22.1666667 L82.2948718,19.1496667 L85.3118718,22.1666667 L82.2948718,25.1836667 L82.2948718,25.1836667 L82.2948718,25.1836667 Z" id="Fill-3" fill="#F5B303"></path>
                            </g>
                        </g>
                    </g>
                </g>
            </g>
        </g>
    </g>
</svg>