<?xml version="1.0" encoding="UTF-8"?>
<svg width="70px" height="70px" viewBox="0 0 70 70" version="1.1" xmlns="http://www.w3.org/2000/svg" xmlns:xlink="http://www.w3.org/1999/xlink">
    <!-- Generator: Sketch 46.2 (44496) - http://www.bohemiancoding.com/sketch -->
    <title>cloud-sun-wind</title>
    <desc>Created with Sketch.</desc>
    <defs></defs>
    <g id="Symbols" stroke="none" stroke-width="1" fill="none" fill-rule="evenodd">
        <g id="Tours" transform="translate(-65.000000, -5573.000000)">
            <g id="cloud-sun-wind" transform="translate(65.000000, 5573.000000)">
                <g id="Weather">
                    <g>
                        <g id="Icon-15">
                            <g id="cloud-sun-wind">
                                <path d="M18.6666667,23.3333333 C21.889,23.3333333 24.8873333,24.619 27.1121667,26.9511667 C27.5566667,27.4178333 28.294,27.4353333 28.7618333,26.9908333 C29.2285,26.5463333 29.2448333,25.8078333 28.8003333,25.3411667 C26.131,22.5411667 22.5318333,21 18.6666667,21 C10.9468333,21 4.66666667,27.2801667 4.66666667,35 C4.66666667,35.8598333 4.74483333,36.7196667 4.89883333,37.555 C5.00266667,38.1161667 5.49383333,38.5093333 6.04566667,38.5093333 C6.11566667,38.5093333 6.18683333,38.5023333 6.258,38.4895 C6.8915,38.3728333 7.3115,37.7638333 7.19366667,37.1303333 C7.06533333,36.435 7,35.7175 7,35 C7,28.567 12.2336667,23.3333333 18.6666667,23.3333333" id="Fill-1" fill="#12B1BF"></path>
                                <path d="M26.4915,19.9406667 C26.1321667,20.4761667 26.2756667,21.2006667 26.8088333,21.56 C27.3443333,21.9216667 28.07,21.7758333 28.4281667,21.2415 C31.4743333,16.7066667 36.5318333,14 41.9568333,14 C50.9635,14 58.2901667,21.3266667 58.2901667,30.3333333 C58.2901667,31.8138333 58.093,33.2791667 57.7033333,34.6896667 C57.5318333,35.3103333 57.8958333,35.9531667 58.5165,36.1246667 C58.6215,36.1538333 58.7253333,36.1666667 58.8291667,36.1666667 C59.3401667,36.1666667 59.8103333,35.8271667 59.9526667,35.3103333 C60.3971667,33.698 60.6235,32.0226667 60.6235,30.3333333 C60.6235,20.041 52.2491667,11.6666667 41.9568333,11.6666667 C35.7525,11.6666667 29.9705,14.7595 26.4915,19.9406667" id="Fill-2" fill="#12B1BF"></path>
                                <path d="M12.7901667,56 L9.33333333,56 C5.47283333,56 2.33333333,52.8605 2.33333333,49 C2.33333333,45.1395 5.47283333,42 9.33333333,42 C9.9785,42 10.5,41.4773333 10.5,40.8333333 C10.5,40.1893333 9.9785,39.6666667 9.33333333,39.6666667 C4.18716667,39.6666667 0,43.8538333 0,49 C0,54.1461667 4.18716667,58.3333333 9.33333333,58.3333333 L12.7901667,58.3333333 C13.4353333,58.3333333 13.9568333,57.8106667 13.9568333,57.1666667 C13.9568333,56.5226667 13.4353333,56 12.7901667,56" id="Fill-3" fill="#12B1BF"></path>
                                <path d="M51.2901667,60.6666667 L22.1235,60.6666667 C21.4783333,60.6666667 20.9568333,61.1893333 20.9568333,61.8333333 C20.9568333,62.4773333 21.4783333,63 22.1235,63 L51.2901667,63 C52.5758333,63 53.6235,64.0465 53.6235,65.3333333 C53.6235,66.6201667 52.5758333,67.6666667 51.2901667,67.6666667 C50.666,67.6666667 50.0791667,67.4228333 49.6381667,66.9818333 C49.182,66.5256667 48.4435,66.5268333 47.9885,66.9818333 C47.5323333,67.4368333 47.5323333,68.1753333 47.9885,68.6315 C48.8705,69.5135 50.043,70 51.2901667,70 C53.8638333,70 55.9568333,67.907 55.9568333,65.3333333 C55.9568333,62.7596667 53.8638333,60.6666667 51.2901667,60.6666667" id="Fill-4" fill="#12B1BF"></path>
                                <path d="M62.9568333,56 L57.1235,56 C56.4783333,56 55.9568333,56.5226667 55.9568333,57.1666667 C55.9568333,57.8106667 56.4783333,58.3333333 57.1235,58.3333333 L62.9568333,58.3333333 C65.5305,58.3333333 67.6235,60.4263333 67.6235,63 C67.6235,65.5736667 65.5305,67.6666667 62.9568333,67.6666667 C61.6933333,67.6666667 60.5103333,67.1696667 59.6248333,66.2678333 C59.1721667,65.8058333 58.4336667,65.8 57.9751667,66.2515 C57.5155,66.703 57.5085,67.4415 57.96,67.9011667 C59.2865,69.2545 61.0621667,70 62.9568333,70 C66.8161667,70 69.9568333,66.8605 69.9568333,63 C69.9568333,59.1395 66.8161667,56 62.9568333,56" id="Fill-5" fill="#F5B303"></path>
                                <path d="M67.6235,44.3333333 C67.6235,47.3211667 66.4941667,50.1643333 64.4431667,52.3378333 C64.001,52.8056667 64.0231667,53.5441667 64.491,53.9863333 C64.7173333,54.1986667 65.0055,54.3048333 65.2925,54.3048333 C65.6016667,54.3048333 65.9108333,54.1811667 66.1406667,53.9385 C68.6023333,51.331 69.9568333,47.9196667 69.9568333,44.3333333 C69.9568333,39.7926667 67.739,35.5156667 64.0266667,32.8918333 C63.4981667,32.5208333 62.7725,32.6468333 62.4003333,33.1718333 C62.0281667,33.698 62.153,34.426 62.6803333,34.7981667 C65.7755,36.9856667 67.6235,40.5498333 67.6235,44.3333333" id="Fill-6" fill="#12B1BF"></path>
                                <path d="M55.9568333,50.1666667 C55.9568333,45.6633333 52.2923333,42 47.7901667,42 C43.288,42 39.6235,45.6633333 39.6235,50.1666667 C39.6235,50.8106667 40.145,51.3333333 40.7901667,51.3333333 C41.4353333,51.3333333 41.9568333,50.8106667 41.9568333,50.1666667 C41.9568333,46.9501667 44.5736667,44.3333333 47.7901667,44.3333333 C51.0066667,44.3333333 53.6235,46.9501667 53.6235,50.1666667 C53.6235,53.3831667 51.0066667,56 47.7901667,56 L17.4568333,56 C16.8116667,56 16.2901667,56.5226667 16.2901667,57.1666667 C16.2901667,57.8106667 16.8116667,58.3333333 17.4568333,58.3333333 L47.7901667,58.3333333 C52.2923333,58.3333333 55.9568333,54.67 55.9568333,50.1666667" id="Fill-7" fill="#12B1BF"></path>
                                <path d="M10.5035,20.958 C10.5816667,20.9743333 10.661,20.9825 10.738,20.9825 C11.2805,20.9825 11.767,20.6021667 11.8801667,20.0491667 C12.8741667,15.1923333 17.2001667,11.6666667 22.1666667,11.6666667 C24.4626667,11.6678333 26.6431667,12.3946667 28.4725,13.7725 C28.9905,14.1586667 29.7208333,14.0548333 30.107,13.5403333 C30.4943333,13.0258333 30.3916667,12.2943333 29.876,11.907 C27.6383333,10.2246667 24.9725,9.3345 22.1666667,9.3345 C16.0976667,9.3345 10.8103333,13.6441667 9.59466667,19.5813333 C9.464,20.2125 9.87233333,20.8296667 10.5035,20.958" id="Fill-8" fill="#12B1BF"></path>
                                <path d="M33.7155,11.7845 C34.0141667,11.7845 34.3128333,11.6701667 34.5403333,11.4426667 L37.8408333,8.14333333 C38.297,7.68716667 38.297,6.94866667 37.8408333,6.4925 C37.3858333,6.0375 36.6473333,6.0375 36.1923333,6.4925 L32.8906667,9.793 C32.4356667,10.248 32.4356667,10.9865 32.8906667,11.4426667 C33.1193333,11.6701667 33.418,11.7845 33.7155,11.7845" id="Fill-9" fill="#F5B303"></path>
                                <path d="M22.1666667,7 C22.8118333,7 23.3333333,6.4785 23.3333333,5.83333333 L23.3333333,1.16666667 C23.3333333,0.522666667 22.8118333,0 22.1666667,0 C21.5215,0 21,0.522666667 21,1.16666667 L21,5.83333333 C21,6.4785 21.5215,7 22.1666667,7" id="Fill-10" fill="#F5B303"></path>
                                <path d="M9.793,11.4426667 C10.0205,11.6701667 10.3191667,11.7845 10.6178333,11.7845 C10.9153333,11.7845 11.214,11.6701667 11.4426667,11.4426667 C11.8976667,10.9865 11.8976667,10.248 11.4426667,9.793 L8.141,6.4925 C7.686,6.0375 6.9475,6.0375 6.4925,6.4925 C6.03633333,6.94866667 6.03633333,7.68716667 6.4925,8.14333333 L9.793,11.4426667" id="Fill-11" fill="#F5B303"></path>
                                <path d="M1.16666667,23.3345 L5.83333333,23.3333333 C6.4785,23.3333333 7,22.8118333 7,22.1666667 C7,21.5226667 6.47733333,21 5.83333333,21 L1.16666667,21.0011667 C0.5215,21.0011667 0,21.5238333 0,22.1678333 C0,22.8118333 0.522666667,23.3345 1.16666667,23.3345" id="Fill-12" fill="#F5B303"></path>
                                <path d="M14.8388333,7.52383333 C15.0243333,7.973 15.4595,8.24366667 15.9168333,8.24366667 C16.065,8.24366667 16.2166667,8.21566667 16.3625,8.155 C16.9575,7.90766667 17.2398333,7.22516667 16.9936667,6.63016667 L16.1011667,4.47416667 C15.855,3.878 15.1701667,3.598 14.5763333,3.843 C13.9813333,4.08916667 13.699,4.77166667 13.9451667,5.36783333 L14.8388333,7.52383333" id="Fill-13" fill="#F5B303"></path>
                                <path d="M27.9708333,8.15383333 C28.1166667,8.2145 28.2671667,8.24366667 28.4165,8.24366667 C28.8738333,8.24366667 29.309,7.97183333 29.4945,7.52266667 L30.3881667,5.36783333 C30.6343333,4.77166667 30.352,4.08916667 29.757,3.843 C29.1631667,3.59683333 28.4795,3.878 28.2321667,4.47416667 L27.3396667,6.63016667 C27.0935,7.22516667 27.3758333,7.90766667 27.9708333,8.15383333" id="Fill-14" fill="#F5B303"></path>
                                <path d="M4.47533333,16.1011667 L6.63133333,16.9936667 C6.77716667,17.0543333 6.92766667,17.0835 7.077,17.0835 C7.53433333,17.0835 7.9695,16.8116667 8.155,16.3625 C8.40116667,15.7675 8.11883333,15.085 7.52383333,14.8376667 L5.369,13.9451667 C4.77516667,13.7001667 4.0915,13.9801667 3.84416667,14.5763333 C3.598,15.1713333 3.88033333,15.8538333 4.47533333,16.1011667" id="Fill-15" fill="#F5B303"></path>
                                <path d="M52.1231667,22.3568333 C51.583,22.708 51.4301667,23.4313333 51.7825,23.9715 C53.0145,25.8638333 53.6666667,28.0641667 53.6666667,30.3333333 C53.6666667,30.9773333 54.1881667,31.5 54.8333333,31.5 C55.4785,31.5 56,30.9773333 56,30.3333333 C56,27.6103333 55.2171667,24.9701667 53.7366667,22.6975 C53.3866667,22.1573333 52.6645,22.0056667 52.1231667,22.3568333" id="Fill-16" fill="#F5B303"></path>
                                <path d="M13.3303333,27.3443333 C11.6013333,28.5495 10.3203333,30.3216667 9.72066667,32.333 C9.53633333,32.9501667 9.88866667,33.6 10.5058333,33.7843333 C10.6166667,33.817 10.7286667,33.8333333 10.8383333,33.8333333 C11.3423333,33.8333333 11.8055,33.5055 11.956,32.9991667 C12.4063333,31.4918333 13.3676667,30.1618333 14.665,29.2576667 C15.1935,28.889 15.323,28.1621667 14.9543333,27.6325 C14.5868333,27.1063333 13.8611667,26.9733333 13.3303333,27.3443333" id="Fill-17" fill="#F5B303"></path>
                            </g>
                        </g>
                    </g>
                </g>
            </g>
        </g>
    </g>
</svg>