<?xml version="1.0" encoding="iso-8859-1"?>
<!-- Generator: Adobe Illustrator 19.0.0, SVG Export Plug-In . SVG Version: 6.00 Build 0)  -->
<svg version="1.1" id="Capa_1" xmlns="http://www.w3.org/2000/svg" xmlns:xlink="http://www.w3.org/1999/xlink" x="0px" y="0px"
	 viewBox="0 0 490.295 490.295" style="enable-background:new 0 0 490.295 490.295;" xml:space="preserve">
<path d="M484.627,145.507c-13.525-24.892-41.23-35.185-74.081-23.102L291.288,168.04L196.762,66.295
	c-12.003-12.778-33.042-18.618-48.119-12.371c-34.362,14.236-40.924,48.463-20.413,74.276l69.102,79.528l-80.323,35.706
	L13.24,214.376c-4.266-1.201-8.888,0.468-11.413,4.145c-2.525,3.686-2.424,8.563,0.254,12.136l102.121,136.484
	c4.337,5.797,10.622,4.184,12.605,3.278l338.904-151.757C476.799,211.566,501.679,176.89,484.627,145.507z M447.739,199.4
	L115.901,347.98L37.147,242.722l77.858,21.799c2.312,0.651,4.817,0.468,7.046-0.509l96.634-42.946
	c4.912-2.006,9.257-9.499,3.634-16.372l-78.347-90.168c-5.682-6.548-13.565-30.209,11.311-40.727
	c8.882-3.755,19.702-0.225,26.238,6.729l99.281,106.856c2.891,3.126,7.401,4.165,11.362,2.638l126.588-48.434
	c26.102-8.991,41.723,1.752,47.13,13.053C477.471,178.861,456.892,195.887,447.739,199.4z"/>
<rect x="10.43" y="418.038" width="469.167" height="20.851"/>
<g>
</g>
<g>
</g>
<g>
</g>
<g>
</g>
<g>
</g>
<g>
</g>
<g>
</g>
<g>
</g>
<g>
</g>
<g>
</g>
<g>
</g>
<g>
</g>
<g>
</g>
<g>
</g>
<g>
</g>
</svg>
