<?xml version="1.0" encoding="UTF-8"?>
<svg width="70px" height="70px" viewBox="0 0 70 70" version="1.1" xmlns="http://www.w3.org/2000/svg" xmlns:xlink="http://www.w3.org/1999/xlink">
    <!-- Generator: Sketch 46.2 (44496) - http://www.bohemiancoding.com/sketch -->
    <title>suitcase-2</title>
    <desc>Created with Sketch.</desc>
    <defs></defs>
    <g id="Symbols" stroke="none" stroke-width="1" fill="none" fill-rule="evenodd">
        <g id="Tours" transform="translate(-65.000000, -5342.000000)">
            <g id="suitcase-2" transform="translate(65.000000, 5342.000000)">
                <g id="Travel">
                    <g>
                        <g id="Icon-2">
                            <g id="suitcase-2">
                                <path d="M22.1666667,16.3333333 L58.3333333,16.3333333 L58.3333333,64.1666667 C58.3333333,64.8106667 58.856,65.3333333 59.5,65.3333333 C60.144,65.3333333 60.6666667,64.8106667 60.6666667,64.1666667 L60.6666667,15.1666667 C60.6666667,14.5226667 60.144,14 59.5,14 L49,14 L49,10.5 C49,4.907 44.093,0 38.5,0 L31.5,0 C26.005,0 21,5.005 21,10.5 L21,15.1666667 C21,15.8106667 21.5226667,16.3333333 22.1666667,16.3333333 L22.1666667,16.3333333 L22.1666667,16.3333333 Z M42,14 L28,14 L28,10.5 C28,8.57033333 29.5703333,7 31.5,7 L38.5,7 C40.4296667,7 42,8.57033333 42,10.5 L42,14 L42,14 L42,14 Z M23.3333333,10.5 C23.3333333,6.30233333 27.3023333,2.33333333 31.5,2.33333333 L38.5,2.33333333 C42.7746667,2.33333333 46.6666667,6.22533333 46.6666667,10.5 L46.6666667,14 L44.3333333,14 L44.3333333,10.5 C44.3333333,7.2835 41.7165,4.66666667 38.5,4.66666667 L31.5,4.66666667 C28.2835,4.66666667 25.6666667,7.2835 25.6666667,10.5 L25.6666667,14 L23.3333333,14 L23.3333333,10.5 L23.3333333,10.5 L23.3333333,10.5 Z" id="Fill-1" fill="#12B1BF"></path>
                                <path d="M64.1666667,14 C63.5226667,14 63,14.5226667 63,15.1666667 C63,15.8106667 63.5226667,16.3333333 64.1666667,16.3333333 C66.0963333,16.3333333 67.6666667,17.9036667 67.6666667,19.8333333 L67.6666667,64.1666667 C67.6666667,66.0963333 66.0963333,67.6666667 64.1666667,67.6666667 L53.6666667,67.6666667 L53.6666667,19.8333333 C53.6666667,19.1893333 53.144,18.6666667 52.5,18.6666667 C51.856,18.6666667 51.3333333,19.1893333 51.3333333,19.8333333 L51.3333333,68.8333333 C51.3333333,69.4773333 51.856,70 52.5,70 L64.1666667,70 C67.3831667,70 70,67.3831667 70,64.1666667 L70,19.8333333 C70,16.6168333 67.3831667,14 64.1666667,14" id="Fill-2" fill="#12B1BF"></path>
                                <path d="M47.8333333,67.6666667 L11.6666667,67.6666667 L11.6666667,19.5416667 C11.6666667,18.8976667 11.144,18.375 10.5,18.375 C9.856,18.375 9.33333333,18.8976667 9.33333333,19.5416667 L9.33333333,68.8333333 C9.33333333,69.4773333 9.856,70 10.5,70 L47.8333333,70 C48.4773333,70 49,69.4773333 49,68.8333333 C49,68.1893333 48.4773333,67.6666667 47.8333333,67.6666667" id="Fill-3" fill="#12B1BF"></path>
                                <path d="M5.83333333,67.6666667 C3.90366667,67.6666667 2.33333333,66.0963333 2.33333333,64.1666667 L2.33333333,19.8333333 C2.33333333,17.9036667 3.90366667,16.3333333 5.83333333,16.3333333 L16.3333333,16.3333333 L16.3333333,64.1666667 C16.3333333,64.8106667 16.856,65.3333333 17.5,65.3333333 C18.144,65.3333333 18.6666667,64.8106667 18.6666667,64.1666667 L18.6666667,15.1666667 C18.6666667,14.5226667 18.144,14 17.5,14 L5.83333333,14 C2.61683333,14 0,16.6168333 0,19.8333333 L0,64.1666667 C0,67.3831667 2.61683333,70 5.83333333,70 C6.47733333,70 7,69.4773333 7,68.8333333 C7,68.1893333 6.47733333,67.6666667 5.83333333,67.6666667" id="Fill-4" fill="#12B1BF"></path>
                                <path d="M29.5936667,44.2493333 C29.792,44.2493333 29.9915,44.1991667 30.1758333,44.093 L42.301,37.093 C42.5681667,36.939 42.7641667,36.6835 42.8446667,36.3848333 C42.924,36.0861667 42.882,35.7676667 42.728,35.4993333 L38.0613333,27.4166667 C37.7381667,26.859 37.0265,26.6665 36.4676667,26.9896667 L24.3425,33.9896667 C24.0753333,34.1448333 23.8793333,34.3991667 23.7988333,34.6978333 C23.7195,34.9976667 23.7615,35.3161667 23.9155,35.5833333 L28.5821667,43.666 C28.7991667,44.0405 29.19,44.2493333 29.5936667,44.2493333 L29.5936667,44.2493333 L29.5936667,44.2493333 Z M36.624,29.5936667 L40.124,35.6556667 L30.0195,41.489 L26.5195,35.427 L36.624,29.5936667 L36.624,29.5936667 L36.624,29.5936667 Z" id="Fill-5" fill="#F5B303"></path>
                                <path d="M45.5,47.8333333 C46.144,47.8333333 46.6666667,47.3106667 46.6666667,46.6666667 L46.6666667,37.3333333 C46.6666667,36.6893333 46.144,36.1666667 45.5,36.1666667 C44.856,36.1666667 44.3333333,36.6893333 44.3333333,37.3333333 L44.3333333,45.5 L31.5,45.5 C31.0835,45.5 30.6973333,45.7216667 30.4896667,46.0833333 L28.1563333,50.1258333 C27.8343333,50.6835 28.0256667,51.3975 28.5833333,51.7195 L34.6453333,55.2195 C34.8296667,55.3256667 35.0303333,55.3758333 35.2275,55.3758333 C35.6276667,55.3758333 36.0161667,55.1705 36.2331667,54.803 L38.3623333,51.198 C38.6913333,50.6426667 38.5058333,49.9275 37.9516667,49.5996667 C37.3975,49.273 36.6811667,49.4573333 36.3545,50.0103333 L34.8121667,52.6213333 L30.7603333,50.2821667 L32.1743333,47.8333333 L45.5,47.8333333" id="Fill-6" fill="#F5B303"></path>
                            </g>
                        </g>
                    </g>
                </g>
            </g>
        </g>
    </g>
</svg>